# xmcd
#
# Track frame offsets:
#	182
#	13625
#	26715
#	38815
#	52350
#	64815
#	75717
#	88775
#	103577
#	115910
#	130267
#	143525
#	158080
#	170655
#	187390
#	204007
#	217255
#	231472
#	245767
#	257410
#
# Disc length: 3706 seconds
#
# Revision: 0
# Processed by: cddbd v1.4PL0 Copyright (c) Steve Scherf et al.
# Submitted via: audiograbber 1.80.04
#
DISCID=270e7814
DTITLE=Dr. Hook - 20 Classic Tracks
DYEAR=1997
DGENRE=Country
TTITLE0=Sexy Eyes
TTITLE1=A Little Bit More
TTITLE2=Up on the Mountain
TTITLE3=Better Love Next Time
TTITLE4=Makin' Love and Music
TTITLE5=Bad Eye Bill
TTITLE6=Oh Jesse
TTITLE7=Jungle to the Zoo
TTITLE8=I Don't Feel Much Like Smilin'
TTITLE9=Love Monster
TTITLE10=When You're in Love With a Beautiful Woman
TTITLE11=If Not You
TTITLE12=Only Sixteen
TTITLE13=More Like the Movies
TTITLE14=In Over My Head
TTITLE15=Sharing the Night Together
TTITLE16=Everybody's Makin it Big but Me
TTITLE17=A Couple More Years
TTITLE18=All the Time in the World
TTITLE19=Sylvia's Mother  [Live]
EXTD=
EXTT0=
EXTT1=
EXTT2=
EXTT3=
EXTT4=
EXTT5=
EXTT6=
EXTT7=
EXTT8=
EXTT9=
EXTT10=
EXTT11=
EXTT12=
EXTT13=
EXTT14=
EXTT15=
EXTT16=
EXTT17=
EXTT18=
EXTT19=
PLAYORDER=
